<?xml version="1.0" standalone="no"?>
<!DOCTYPE svg PUBLIC "-//W3C//DTD SVG 20010904//EN"
 "http://www.w3.org/TR/2001/REC-SVG-20010904/DTD/svg10.dtd">
<svg version="1.0" xmlns="http://www.w3.org/2000/svg"
 width="16.000000pt" height="16.000000pt" viewBox="0 0 16.000000 16.000000"
 preserveAspectRatio="xMidYMid meet">
<metadata>
Created by potrace 1.11, written by Peter Selinger 2001-2013
</metadata>
<g transform="translate(0.000000,16.000000) scale(0.007273,-0.007273)"
fill="#000000" stroke="none">
<path d="M0 1100 l0 -1100 405 0 404 0 4 73 3 72 2 -72 c2 -70 3 -73 27 -73
23 0 24 3 28 68 l3 67 2 -67 c2 -61 4 -68 22 -68 18 0 20 7 20 65 0 37 4 65
10 65 6 0 10 -28 10 -65 l0 -65 50 0 50 0 0 65 c0 37 4 65 10 65 6 0 10 -28
10 -65 0 -58 2 -65 20 -65 17 0 20 8 23 67 l3 68 2 -67 c2 -65 3 -68 27 -68
23 0 24 3 28 67 l3 68 2 -67 c2 -65 3 -68 27 -68 23 0 24 3 28 67 l3 68 2 -67
2 -68 80 0 80 0 0 65 c0 37 4 65 10 65 6 0 10 -28 10 -65 l0 -65 395 0 395 0
0 1100 0 1100 -390 0 -389 0 -4 -77 -3 -78 -2 78 c-2 75 -3 77 -27 77 -23 0
-24 -3 -28 -72 l-3 -73 -2 73 -2 72 -55 0 -54 0 -4 -72 -3 -73 -2 73 c-2 69
-3 72 -27 72 -23 0 -24 -3 -28 -72 l-3 -73 -2 73 c-2 65 -4 72 -22 72 -18 0
-20 -7 -20 -70 0 -40 -4 -70 -10 -70 -6 0 -10 30 -10 70 0 63 -2 70 -20 70
-17 0 -20 -8 -23 -77 l-3 -78 -2 78 -2 77 -55 0 -54 0 -4 -77 -3 -78 -2 78
c-2 75 -3 77 -27 77 -23 0 -24 -3 -28 -72 l-3 -73 -2 73 c-2 65 -4 72 -22 72
-18 0 -20 -7 -20 -69 0 -39 -4 -73 -10 -76 -6 -4 -10 22 -10 69 l0 76 -410 0
-410 0 0 -1100z m827 728 c-2 -24 -4 -5 -4 42 0 47 2 66 4 43 2 -24 2 -62 0
-85z m60 25 c-2 -21 -4 -6 -4 32 0 39 2 55 4 38 2 -18 2 -50 0 -70z m60 20
c-2 -16 -4 -3 -4 27 0 30 2 43 4 28 2 -16 2 -40 0 -55z m123 36 c0 -24 -4 -38
-10 -34 -5 3 -10 22 -10 41 0 19 5 34 10 34 6 0 10 -18 10 -41z m60 0 c0 -16
-4 -29 -10 -29 -5 0 -10 16 -10 36 0 21 4 33 10 29 6 -3 10 -19 10 -36z m47
-11 c-2 -13 -4 -5 -4 17 -1 22 1 32 4 23 2 -10 2 -28 0 -40z m60 -10 c-2 -13
-4 -3 -4 22 0 25 2 35 4 23 2 -13 2 -33 0 -45z m183 -19 c0 -51 -4 -78 -10
-74 -18 11 -12 155 7 155 2 0 3 -36 3 -81z m-63 -6 c-2 -16 -4 -3 -4 27 0 30
2 43 4 28 2 -16 2 -40 0 -55z m143 -258 c27 -20 63 -52 81 -73 42 -47 109
-151 109 -169 0 -27 -16 -12 -45 44 -29 56 -118 155 -185 206 -19 14 -29 26
-21 27 7 0 35 -16 61 -35z m-352 18 c-16 -2 -40 -2 -55 0 -16 2 -3 4 27 4 30
0 43 -2 28 -4z m-115 -10 c-7 -2 -19 -2 -25 0 -7 3 -2 5 12 5 14 0 19 -2 13
-5z m194 1 c-3 -3 -12 -4 -19 -1 -8 3 -5 6 6 6 11 1 17 -2 13 -5z m152 -55
c70 -40 150 -120 190 -190 17 -29 31 -58 31 -64 0 -5 -15 17 -33 50 -17 33
-57 84 -87 115 -31 30 -82 70 -115 87 -33 18 -55 33 -50 33 6 0 35 -14 64 -31z
m-369 -56 c0 -5 -27 -20 -59 -35 -149 -70 -243 -235 -226 -396 8 -79 -10 -78
-20 2 -14 111 35 243 123 329 64 62 182 127 182 100z m582 -298 c3 -14 1 -25
-3 -25 -5 0 -9 11 -9 25 0 14 2 25 4 25 2 0 6 -11 8 -25z m35 3 c-3 -8 -6 -5
-6 6 -1 11 2 17 5 13 3 -3 4 -12 1 -19z m-30 -120 c-2 -18 -4 -6 -4 27 0 33 2
48 4 33 2 -15 2 -42 0 -60z m33 -78 c-21 -98 -67 -179 -144 -255 -114 -113
-219 -156 -371 -154 l-80 2 100 7 c116 9 186 32 276 92 133 89 214 245 221
422 l2 51 4 -55 c2 -30 -2 -80 -8 -110z m116 71 c-13 -162 -71 -287 -186 -401
-127 -128 -262 -183 -445 -183 -82 0 -115 5 -182 28 -46 15 -91 33 -100 40
-31 23 -7 27 34 7 72 -37 154 -56 248 -56 167 -1 300 51 418 164 118 112 180
240 193 398 4 45 11 82 17 82 6 0 7 -28 3 -79z m-220 -34 c-11 -71 -61 -164
-119 -220 -50 -49 -162 -115 -175 -103 -7 7 -8 7 57 36 109 49 209 181 227
297 3 24 9 42 11 39 3 -3 2 -25 -1 -49z m53 -64 c-52 -161 -183 -286 -344
-328 -62 -16 -162 -18 -205 -5 -14 4 11 5 55 2 143 -8 267 38 367 138 59 60
112 152 125 220 3 19 8 29 10 23 3 -7 -1 -30 -8 -50z m-823 -160 c44 -54 121
-110 192 -139 31 -13 50 -24 41 -24 -36 0 -147 67 -205 125 -54 53 -105 128
-104 152 1 4 10 -10 22 -32 11 -22 36 -59 54 -82z m-97 67 c11 -24 11 -24 -3
-6 -9 11 -16 24 -16 30 0 12 5 7 19 -24z m96 -130 l49 -55 -50 48 c-27 26 -58
62 -67 80 -17 31 -17 31 0 7 10 -14 40 -50 68 -80z m105 -87 c0 -7 -39 17 -46
28 -3 6 5 3 20 -6 14 -10 26 -19 26 -22z m157 -59 c-3 -3 -12 -4 -19 -1 -8 3
-5 6 6 6 11 1 17 -2 13 -5z m-200 -296 c-2 -35 -3 -9 -3 57 0 66 1 94 3 63 2
-32 2 -86 0 -120z m585 65 c-4 -148 -10 -153 -11 -10 -1 64 2 117 7 117 4 0 6
-48 4 -107z m-525 -70 c-2 -32 -3 -8 -3 52 0 61 1 87 3 58 2 -29 2 -78 0 -110z
m63 47 c0 -60 -4 -100 -10 -100 -6 0 -10 40 -10 100 0 60 4 100 10 100 6 0 10
-40 10 -100z m107 -52 c-2 -29 -3 -8 -3 47 0 55 1 79 3 53 2 -26 2 -71 0 -100z
m60 0 c-2 -29 -3 -8 -3 47 0 55 1 79 3 53 2 -26 2 -71 0 -100z m60 0 c-2 -29
-3 -8 -3 47 0 55 1 79 3 53 2 -26 2 -71 0 -100z m60 0 c-2 -29 -3 -8 -3 47 0
55 1 79 3 53 2 -26 2 -71 0 -100z"/>
</g>
</svg>
